<mxfile host="app.diagrams.net" modified="2024-05-17T06:24:52.817Z" agent="Mozilla/5.0 (Windows NT 10.0; Win64; x64) AppleWebKit/537.36 (KHTML, like Gecko) Chrome/124.0.0.0 Safari/537.36" etag="4eKMt4tKqGz4fQfJsyo5" version="24.4.2" type="device">
  <diagram name="Seite-1" id="oj3eeNkfshwRB4A8tawo">
    <mxGraphModel dx="1500" dy="1915" grid="1" gridSize="10" guides="1" tooltips="1" connect="1" arrows="1" fold="1" page="1" pageScale="1" pageWidth="827" pageHeight="1169" math="0" shadow="0">
      <root>
        <mxCell id="0" />
        <mxCell id="1" parent="0" />
        <mxCell id="EqFdlPMkGXxcD6CGsmBO-1" value="Kunden" style="rounded=0;whiteSpace=wrap;html=1;" vertex="1" parent="1">
          <mxGeometry x="130" y="100" width="120" height="60" as="geometry" />
        </mxCell>
        <mxCell id="EqFdlPMkGXxcD6CGsmBO-2" value="Filale" style="rounded=0;whiteSpace=wrap;html=1;" vertex="1" parent="1">
          <mxGeometry x="520" y="30" width="120" height="60" as="geometry" />
        </mxCell>
        <mxCell id="EqFdlPMkGXxcD6CGsmBO-3" value="Mitarbeiter" style="rounded=0;whiteSpace=wrap;html=1;" vertex="1" parent="1">
          <mxGeometry x="520" y="300" width="120" height="60" as="geometry" />
        </mxCell>
        <mxCell id="EqFdlPMkGXxcD6CGsmBO-4" value="Konto" style="rounded=0;whiteSpace=wrap;html=1;" vertex="1" parent="1">
          <mxGeometry x="130" y="350" width="120" height="60" as="geometry" />
        </mxCell>
        <mxCell id="EqFdlPMkGXxcD6CGsmBO-6" value="" style="edgeStyle=orthogonalEdgeStyle;rounded=0;orthogonalLoop=1;jettySize=auto;html=1;endArrow=none;endFill=0;" edge="1" parent="1" source="EqFdlPMkGXxcD6CGsmBO-5" target="EqFdlPMkGXxcD6CGsmBO-1">
          <mxGeometry relative="1" as="geometry" />
        </mxCell>
        <mxCell id="EqFdlPMkGXxcD6CGsmBO-8" value="1" style="edgeLabel;html=1;align=center;verticalAlign=middle;resizable=0;points=[];" vertex="1" connectable="0" parent="EqFdlPMkGXxcD6CGsmBO-6">
          <mxGeometry x="-0.1333" relative="1" as="geometry">
            <mxPoint as="offset" />
          </mxGeometry>
        </mxCell>
        <mxCell id="EqFdlPMkGXxcD6CGsmBO-7" value="" style="edgeStyle=orthogonalEdgeStyle;rounded=0;orthogonalLoop=1;jettySize=auto;html=1;endArrow=none;endFill=0;" edge="1" parent="1" source="EqFdlPMkGXxcD6CGsmBO-5" target="EqFdlPMkGXxcD6CGsmBO-4">
          <mxGeometry relative="1" as="geometry" />
        </mxCell>
        <mxCell id="EqFdlPMkGXxcD6CGsmBO-35" value="m" style="edgeLabel;html=1;align=center;verticalAlign=middle;resizable=0;points=[];" vertex="1" connectable="0" parent="EqFdlPMkGXxcD6CGsmBO-7">
          <mxGeometry x="-0.1983" relative="1" as="geometry">
            <mxPoint as="offset" />
          </mxGeometry>
        </mxCell>
        <mxCell id="EqFdlPMkGXxcD6CGsmBO-5" value="hat" style="rhombus;whiteSpace=wrap;html=1;" vertex="1" parent="1">
          <mxGeometry x="150" y="220" width="80" height="80" as="geometry" />
        </mxCell>
        <mxCell id="EqFdlPMkGXxcD6CGsmBO-18" value="" style="edgeStyle=orthogonalEdgeStyle;rounded=0;orthogonalLoop=1;jettySize=auto;html=1;endArrow=none;endFill=0;" edge="1" parent="1" source="EqFdlPMkGXxcD6CGsmBO-10" target="EqFdlPMkGXxcD6CGsmBO-2">
          <mxGeometry relative="1" as="geometry" />
        </mxCell>
        <mxCell id="EqFdlPMkGXxcD6CGsmBO-20" value="1" style="edgeLabel;html=1;align=center;verticalAlign=middle;resizable=0;points=[];" vertex="1" connectable="0" parent="EqFdlPMkGXxcD6CGsmBO-18">
          <mxGeometry x="-0.1456" relative="1" as="geometry">
            <mxPoint as="offset" />
          </mxGeometry>
        </mxCell>
        <mxCell id="EqFdlPMkGXxcD6CGsmBO-19" value="" style="edgeStyle=orthogonalEdgeStyle;rounded=0;orthogonalLoop=1;jettySize=auto;html=1;endArrow=none;endFill=0;" edge="1" parent="1" source="EqFdlPMkGXxcD6CGsmBO-10" target="EqFdlPMkGXxcD6CGsmBO-1">
          <mxGeometry relative="1" as="geometry" />
        </mxCell>
        <mxCell id="EqFdlPMkGXxcD6CGsmBO-21" value="n" style="edgeLabel;html=1;align=center;verticalAlign=middle;resizable=0;points=[];" vertex="1" connectable="0" parent="EqFdlPMkGXxcD6CGsmBO-19">
          <mxGeometry x="0.0067" y="-3" relative="1" as="geometry">
            <mxPoint as="offset" />
          </mxGeometry>
        </mxCell>
        <mxCell id="EqFdlPMkGXxcD6CGsmBO-10" value="gehört" style="rhombus;whiteSpace=wrap;html=1;" vertex="1" parent="1">
          <mxGeometry x="320" y="90" width="80" height="80" as="geometry" />
        </mxCell>
        <mxCell id="EqFdlPMkGXxcD6CGsmBO-14" value="" style="edgeStyle=orthogonalEdgeStyle;rounded=0;orthogonalLoop=1;jettySize=auto;html=1;endArrow=none;endFill=0;" edge="1" parent="1" source="EqFdlPMkGXxcD6CGsmBO-11" target="EqFdlPMkGXxcD6CGsmBO-3">
          <mxGeometry relative="1" as="geometry" />
        </mxCell>
        <mxCell id="EqFdlPMkGXxcD6CGsmBO-16" value="1" style="edgeLabel;html=1;align=center;verticalAlign=middle;resizable=0;points=[];" vertex="1" connectable="0" parent="EqFdlPMkGXxcD6CGsmBO-14">
          <mxGeometry x="-0.1904" relative="1" as="geometry">
            <mxPoint as="offset" />
          </mxGeometry>
        </mxCell>
        <mxCell id="EqFdlPMkGXxcD6CGsmBO-11" value="betreut" style="rhombus;whiteSpace=wrap;html=1;" vertex="1" parent="1">
          <mxGeometry x="334" y="240" width="80" height="80" as="geometry" />
        </mxCell>
        <mxCell id="EqFdlPMkGXxcD6CGsmBO-15" value="" style="endArrow=none;html=1;rounded=0;exitX=0;exitY=0.5;exitDx=0;exitDy=0;entryX=1;entryY=1;entryDx=0;entryDy=0;endFill=0;" edge="1" parent="1" source="EqFdlPMkGXxcD6CGsmBO-11" target="EqFdlPMkGXxcD6CGsmBO-1">
          <mxGeometry width="50" height="50" relative="1" as="geometry">
            <mxPoint x="400" y="340" as="sourcePoint" />
            <mxPoint x="450" y="290" as="targetPoint" />
          </mxGeometry>
        </mxCell>
        <mxCell id="EqFdlPMkGXxcD6CGsmBO-17" value="n" style="edgeLabel;html=1;align=center;verticalAlign=middle;resizable=0;points=[];" vertex="1" connectable="0" parent="EqFdlPMkGXxcD6CGsmBO-15">
          <mxGeometry x="-0.067" y="-1" relative="1" as="geometry">
            <mxPoint as="offset" />
          </mxGeometry>
        </mxCell>
        <mxCell id="EqFdlPMkGXxcD6CGsmBO-23" value="" style="edgeStyle=orthogonalEdgeStyle;rounded=0;orthogonalLoop=1;jettySize=auto;html=1;endArrow=none;endFill=0;" edge="1" parent="1" source="EqFdlPMkGXxcD6CGsmBO-22" target="EqFdlPMkGXxcD6CGsmBO-2">
          <mxGeometry relative="1" as="geometry" />
        </mxCell>
        <mxCell id="EqFdlPMkGXxcD6CGsmBO-25" value="1" style="edgeLabel;html=1;align=center;verticalAlign=middle;resizable=0;points=[];" vertex="1" connectable="0" parent="EqFdlPMkGXxcD6CGsmBO-23">
          <mxGeometry x="-0.0286" y="1" relative="1" as="geometry">
            <mxPoint as="offset" />
          </mxGeometry>
        </mxCell>
        <mxCell id="EqFdlPMkGXxcD6CGsmBO-24" value="" style="edgeStyle=orthogonalEdgeStyle;rounded=0;orthogonalLoop=1;jettySize=auto;html=1;endArrow=none;endFill=0;" edge="1" parent="1" source="EqFdlPMkGXxcD6CGsmBO-22" target="EqFdlPMkGXxcD6CGsmBO-3">
          <mxGeometry relative="1" as="geometry" />
        </mxCell>
        <mxCell id="EqFdlPMkGXxcD6CGsmBO-26" value="n" style="edgeLabel;html=1;align=center;verticalAlign=middle;resizable=0;points=[];" vertex="1" connectable="0" parent="EqFdlPMkGXxcD6CGsmBO-24">
          <mxGeometry x="-0.0549" y="-1" relative="1" as="geometry">
            <mxPoint as="offset" />
          </mxGeometry>
        </mxCell>
        <mxCell id="EqFdlPMkGXxcD6CGsmBO-22" value="gehört" style="rhombus;whiteSpace=wrap;html=1;" vertex="1" parent="1">
          <mxGeometry x="540" y="160" width="80" height="80" as="geometry" />
        </mxCell>
        <mxCell id="EqFdlPMkGXxcD6CGsmBO-27" value="Hausmeister" style="rounded=0;whiteSpace=wrap;html=1;" vertex="1" parent="1">
          <mxGeometry x="850" y="30" width="120" height="60" as="geometry" />
        </mxCell>
        <mxCell id="EqFdlPMkGXxcD6CGsmBO-29" value="" style="edgeStyle=orthogonalEdgeStyle;rounded=0;orthogonalLoop=1;jettySize=auto;html=1;endArrow=none;endFill=0;" edge="1" parent="1" source="EqFdlPMkGXxcD6CGsmBO-28" target="EqFdlPMkGXxcD6CGsmBO-27">
          <mxGeometry relative="1" as="geometry" />
        </mxCell>
        <mxCell id="EqFdlPMkGXxcD6CGsmBO-33" value="m" style="edgeLabel;html=1;align=center;verticalAlign=middle;resizable=0;points=[];" vertex="1" connectable="0" parent="EqFdlPMkGXxcD6CGsmBO-29">
          <mxGeometry x="-0.1033" y="-1" relative="1" as="geometry">
            <mxPoint as="offset" />
          </mxGeometry>
        </mxCell>
        <mxCell id="EqFdlPMkGXxcD6CGsmBO-30" value="" style="edgeStyle=orthogonalEdgeStyle;rounded=0;orthogonalLoop=1;jettySize=auto;html=1;endArrow=none;endFill=0;" edge="1" parent="1" source="EqFdlPMkGXxcD6CGsmBO-28" target="EqFdlPMkGXxcD6CGsmBO-2">
          <mxGeometry relative="1" as="geometry" />
        </mxCell>
        <mxCell id="EqFdlPMkGXxcD6CGsmBO-31" value="n" style="edgeLabel;html=1;align=center;verticalAlign=middle;resizable=0;points=[];" vertex="1" connectable="0" parent="EqFdlPMkGXxcD6CGsmBO-30">
          <mxGeometry x="-0.0216" y="-2" relative="1" as="geometry">
            <mxPoint as="offset" />
          </mxGeometry>
        </mxCell>
        <mxCell id="EqFdlPMkGXxcD6CGsmBO-28" value="zuständig" style="rhombus;whiteSpace=wrap;html=1;" vertex="1" parent="1">
          <mxGeometry x="700" y="20" width="80" height="80" as="geometry" />
        </mxCell>
        <mxCell id="EqFdlPMkGXxcD6CGsmBO-36" value="Kontotyp" style="rounded=0;whiteSpace=wrap;html=1;" vertex="1" parent="1">
          <mxGeometry x="130" y="585" width="120" height="60" as="geometry" />
        </mxCell>
        <mxCell id="EqFdlPMkGXxcD6CGsmBO-39" value="" style="edgeStyle=orthogonalEdgeStyle;rounded=0;orthogonalLoop=1;jettySize=auto;html=1;endArrow=none;endFill=0;" edge="1" parent="1" source="EqFdlPMkGXxcD6CGsmBO-38" target="EqFdlPMkGXxcD6CGsmBO-4">
          <mxGeometry relative="1" as="geometry" />
        </mxCell>
        <mxCell id="EqFdlPMkGXxcD6CGsmBO-42" value="1" style="edgeLabel;html=1;align=center;verticalAlign=middle;resizable=0;points=[];" vertex="1" connectable="0" parent="EqFdlPMkGXxcD6CGsmBO-39">
          <mxGeometry x="0.0626" y="1" relative="1" as="geometry">
            <mxPoint as="offset" />
          </mxGeometry>
        </mxCell>
        <mxCell id="EqFdlPMkGXxcD6CGsmBO-40" value="" style="edgeStyle=orthogonalEdgeStyle;rounded=0;orthogonalLoop=1;jettySize=auto;html=1;endArrow=none;endFill=0;" edge="1" parent="1" source="EqFdlPMkGXxcD6CGsmBO-38" target="EqFdlPMkGXxcD6CGsmBO-36">
          <mxGeometry relative="1" as="geometry" />
        </mxCell>
        <mxCell id="EqFdlPMkGXxcD6CGsmBO-41" value="1" style="edgeLabel;html=1;align=center;verticalAlign=middle;resizable=0;points=[];" vertex="1" connectable="0" parent="EqFdlPMkGXxcD6CGsmBO-40">
          <mxGeometry x="0.0029" y="-2" relative="1" as="geometry">
            <mxPoint as="offset" />
          </mxGeometry>
        </mxCell>
        <mxCell id="EqFdlPMkGXxcD6CGsmBO-38" value="hat" style="rhombus;whiteSpace=wrap;html=1;" vertex="1" parent="1">
          <mxGeometry x="150" y="460" width="80" height="80" as="geometry" />
        </mxCell>
        <mxCell id="EqFdlPMkGXxcD6CGsmBO-43" value="Girokonto" style="ellipse;whiteSpace=wrap;html=1;" vertex="1" parent="1">
          <mxGeometry x="70" y="695" width="90" height="50" as="geometry" />
        </mxCell>
        <mxCell id="EqFdlPMkGXxcD6CGsmBO-44" value="Sparkonto" style="ellipse;whiteSpace=wrap;html=1;" vertex="1" parent="1">
          <mxGeometry x="210" y="700" width="90" height="45" as="geometry" />
        </mxCell>
        <mxCell id="EqFdlPMkGXxcD6CGsmBO-45" value="" style="endArrow=none;html=1;rounded=0;exitX=0.5;exitY=0;exitDx=0;exitDy=0;entryX=0.369;entryY=0.988;entryDx=0;entryDy=0;entryPerimeter=0;" edge="1" parent="1" source="EqFdlPMkGXxcD6CGsmBO-43" target="EqFdlPMkGXxcD6CGsmBO-36">
          <mxGeometry width="50" height="50" relative="1" as="geometry">
            <mxPoint x="110" y="700" as="sourcePoint" />
            <mxPoint x="160" y="650" as="targetPoint" />
          </mxGeometry>
        </mxCell>
        <mxCell id="EqFdlPMkGXxcD6CGsmBO-46" value="" style="endArrow=none;html=1;rounded=0;entryX=0.5;entryY=1;entryDx=0;entryDy=0;" edge="1" parent="1" target="EqFdlPMkGXxcD6CGsmBO-36">
          <mxGeometry width="50" height="50" relative="1" as="geometry">
            <mxPoint x="250" y="700" as="sourcePoint" />
            <mxPoint x="300" y="650" as="targetPoint" />
          </mxGeometry>
        </mxCell>
        <mxCell id="EqFdlPMkGXxcD6CGsmBO-47" value="&lt;u&gt;TypID&lt;/u&gt;" style="ellipse;whiteSpace=wrap;html=1;" vertex="1" parent="1">
          <mxGeometry x="315" y="620" width="90" height="55" as="geometry" />
        </mxCell>
        <mxCell id="EqFdlPMkGXxcD6CGsmBO-48" value="" style="endArrow=none;html=1;rounded=0;entryX=1;entryY=0.5;entryDx=0;entryDy=0;exitX=0;exitY=0.5;exitDx=0;exitDy=0;" edge="1" parent="1" source="EqFdlPMkGXxcD6CGsmBO-47" target="EqFdlPMkGXxcD6CGsmBO-36">
          <mxGeometry width="50" height="50" relative="1" as="geometry">
            <mxPoint x="310" y="650" as="sourcePoint" />
            <mxPoint x="360" y="600" as="targetPoint" />
          </mxGeometry>
        </mxCell>
        <mxCell id="EqFdlPMkGXxcD6CGsmBO-49" value="&lt;u&gt;KontoID&lt;/u&gt;" style="ellipse;whiteSpace=wrap;html=1;" vertex="1" parent="1">
          <mxGeometry y="430" width="90" height="40" as="geometry" />
        </mxCell>
        <mxCell id="EqFdlPMkGXxcD6CGsmBO-51" value="" style="endArrow=none;html=1;rounded=0;" edge="1" parent="1">
          <mxGeometry width="50" height="50" relative="1" as="geometry">
            <mxPoint x="80" y="440" as="sourcePoint" />
            <mxPoint x="130" y="390" as="targetPoint" />
          </mxGeometry>
        </mxCell>
        <mxCell id="EqFdlPMkGXxcD6CGsmBO-53" value="&lt;u&gt;KundenID&lt;/u&gt;" style="ellipse;whiteSpace=wrap;html=1;" vertex="1" parent="1">
          <mxGeometry x="40" y="10" width="90" height="40" as="geometry" />
        </mxCell>
        <mxCell id="EqFdlPMkGXxcD6CGsmBO-54" value="" style="endArrow=none;html=1;rounded=0;entryX=1;entryY=1;entryDx=0;entryDy=0;" edge="1" parent="1" target="EqFdlPMkGXxcD6CGsmBO-53">
          <mxGeometry width="50" height="50" relative="1" as="geometry">
            <mxPoint x="130" y="100" as="sourcePoint" />
            <mxPoint x="180" y="50" as="targetPoint" />
          </mxGeometry>
        </mxCell>
        <mxCell id="EqFdlPMkGXxcD6CGsmBO-55" value="Name" style="ellipse;whiteSpace=wrap;html=1;" vertex="1" parent="1">
          <mxGeometry x="10" y="70" width="80" height="40" as="geometry" />
        </mxCell>
        <mxCell id="EqFdlPMkGXxcD6CGsmBO-56" value="" style="endArrow=none;html=1;rounded=0;exitX=1;exitY=0.5;exitDx=0;exitDy=0;" edge="1" parent="1" source="EqFdlPMkGXxcD6CGsmBO-55">
          <mxGeometry width="50" height="50" relative="1" as="geometry">
            <mxPoint x="80" y="170" as="sourcePoint" />
            <mxPoint x="130" y="120" as="targetPoint" />
          </mxGeometry>
        </mxCell>
        <mxCell id="EqFdlPMkGXxcD6CGsmBO-57" value="Alter" style="ellipse;whiteSpace=wrap;html=1;" vertex="1" parent="1">
          <mxGeometry x="10" y="130" width="80" height="40" as="geometry" />
        </mxCell>
        <mxCell id="EqFdlPMkGXxcD6CGsmBO-58" value="" style="endArrow=none;html=1;rounded=0;entryX=-0.015;entryY=0.588;entryDx=0;entryDy=0;entryPerimeter=0;" edge="1" parent="1" target="EqFdlPMkGXxcD6CGsmBO-1">
          <mxGeometry width="50" height="50" relative="1" as="geometry">
            <mxPoint x="90" y="150" as="sourcePoint" />
            <mxPoint x="140" y="100" as="targetPoint" />
          </mxGeometry>
        </mxCell>
        <mxCell id="EqFdlPMkGXxcD6CGsmBO-59" value="&lt;u&gt;HausmeisterID&lt;/u&gt;" style="ellipse;whiteSpace=wrap;html=1;" vertex="1" parent="1">
          <mxGeometry x="940" y="170" width="100" height="50" as="geometry" />
        </mxCell>
        <mxCell id="EqFdlPMkGXxcD6CGsmBO-60" value="" style="endArrow=none;html=1;rounded=0;entryX=1;entryY=1;entryDx=0;entryDy=0;" edge="1" parent="1" target="EqFdlPMkGXxcD6CGsmBO-27">
          <mxGeometry width="50" height="50" relative="1" as="geometry">
            <mxPoint x="980" y="170" as="sourcePoint" />
            <mxPoint x="1030" y="120" as="targetPoint" />
          </mxGeometry>
        </mxCell>
        <mxCell id="EqFdlPMkGXxcD6CGsmBO-61" value="Name" style="ellipse;whiteSpace=wrap;html=1;" vertex="1" parent="1">
          <mxGeometry x="1050" y="80" width="80" height="40" as="geometry" />
        </mxCell>
        <mxCell id="EqFdlPMkGXxcD6CGsmBO-62" value="" style="endArrow=none;html=1;rounded=0;exitX=1;exitY=0.75;exitDx=0;exitDy=0;" edge="1" parent="1" source="EqFdlPMkGXxcD6CGsmBO-27">
          <mxGeometry width="50" height="50" relative="1" as="geometry">
            <mxPoint x="1000" y="150" as="sourcePoint" />
            <mxPoint x="1050" y="100" as="targetPoint" />
          </mxGeometry>
        </mxCell>
        <mxCell id="EqFdlPMkGXxcD6CGsmBO-63" value="&lt;u&gt;MitarbeiterID&lt;/u&gt;" style="ellipse;whiteSpace=wrap;html=1;" vertex="1" parent="1">
          <mxGeometry x="710" y="300" width="100" height="60" as="geometry" />
        </mxCell>
        <mxCell id="EqFdlPMkGXxcD6CGsmBO-64" value="Standort" style="ellipse;whiteSpace=wrap;html=1;" vertex="1" parent="1">
          <mxGeometry x="1040" y="-10" width="80" height="50" as="geometry" />
        </mxCell>
        <mxCell id="EqFdlPMkGXxcD6CGsmBO-65" value="" style="endArrow=none;html=1;rounded=0;exitX=1;exitY=0.5;exitDx=0;exitDy=0;" edge="1" parent="1" source="EqFdlPMkGXxcD6CGsmBO-27">
          <mxGeometry width="50" height="50" relative="1" as="geometry">
            <mxPoint x="990" y="70" as="sourcePoint" />
            <mxPoint x="1040" y="20" as="targetPoint" />
          </mxGeometry>
        </mxCell>
        <mxCell id="EqFdlPMkGXxcD6CGsmBO-66" value="" style="endArrow=none;html=1;rounded=0;" edge="1" parent="1" source="EqFdlPMkGXxcD6CGsmBO-3">
          <mxGeometry width="50" height="50" relative="1" as="geometry">
            <mxPoint x="660" y="380" as="sourcePoint" />
            <mxPoint x="710" y="330" as="targetPoint" />
          </mxGeometry>
        </mxCell>
        <mxCell id="EqFdlPMkGXxcD6CGsmBO-67" value="Name" style="ellipse;whiteSpace=wrap;html=1;" vertex="1" parent="1">
          <mxGeometry x="710" y="400" width="90" height="50" as="geometry" />
        </mxCell>
        <mxCell id="EqFdlPMkGXxcD6CGsmBO-68" value="" style="endArrow=none;html=1;rounded=0;exitX=0.993;exitY=0.902;exitDx=0;exitDy=0;exitPerimeter=0;" edge="1" parent="1" source="EqFdlPMkGXxcD6CGsmBO-3">
          <mxGeometry width="50" height="50" relative="1" as="geometry">
            <mxPoint x="660" y="470" as="sourcePoint" />
            <mxPoint x="710" y="420" as="targetPoint" />
          </mxGeometry>
        </mxCell>
        <mxCell id="EqFdlPMkGXxcD6CGsmBO-69" value="Alter" style="ellipse;whiteSpace=wrap;html=1;" vertex="1" parent="1">
          <mxGeometry x="580" y="430" width="70" height="40" as="geometry" />
        </mxCell>
        <mxCell id="EqFdlPMkGXxcD6CGsmBO-70" value="" style="endArrow=none;html=1;rounded=0;entryX=0.5;entryY=1;entryDx=0;entryDy=0;" edge="1" parent="1" target="EqFdlPMkGXxcD6CGsmBO-3">
          <mxGeometry width="50" height="50" relative="1" as="geometry">
            <mxPoint x="610" y="430" as="sourcePoint" />
            <mxPoint x="660" y="380" as="targetPoint" />
          </mxGeometry>
        </mxCell>
        <mxCell id="EqFdlPMkGXxcD6CGsmBO-71" value="Kontonummer" style="ellipse;whiteSpace=wrap;html=1;" vertex="1" parent="1">
          <mxGeometry x="290" y="420" width="94" height="50" as="geometry" />
        </mxCell>
        <mxCell id="EqFdlPMkGXxcD6CGsmBO-72" value="" style="endArrow=none;html=1;rounded=0;entryX=1;entryY=0.75;entryDx=0;entryDy=0;" edge="1" parent="1" target="EqFdlPMkGXxcD6CGsmBO-4">
          <mxGeometry width="50" height="50" relative="1" as="geometry">
            <mxPoint x="290" y="440" as="sourcePoint" />
            <mxPoint x="340" y="390" as="targetPoint" />
          </mxGeometry>
        </mxCell>
        <mxCell id="EqFdlPMkGXxcD6CGsmBO-73" value="&lt;u&gt;FilaleID&lt;/u&gt;" style="ellipse;whiteSpace=wrap;html=1;" vertex="1" parent="1">
          <mxGeometry x="440" y="-110" width="110" height="50" as="geometry" />
        </mxCell>
        <mxCell id="EqFdlPMkGXxcD6CGsmBO-74" value="" style="endArrow=none;html=1;rounded=0;" edge="1" parent="1" target="EqFdlPMkGXxcD6CGsmBO-73">
          <mxGeometry width="50" height="50" relative="1" as="geometry">
            <mxPoint x="520" y="30" as="sourcePoint" />
            <mxPoint x="570" y="-20" as="targetPoint" />
          </mxGeometry>
        </mxCell>
        <mxCell id="EqFdlPMkGXxcD6CGsmBO-75" value="Filalenname" style="ellipse;whiteSpace=wrap;html=1;" vertex="1" parent="1">
          <mxGeometry x="620" y="-100" width="100" height="60" as="geometry" />
        </mxCell>
        <mxCell id="EqFdlPMkGXxcD6CGsmBO-76" value="" style="endArrow=none;html=1;rounded=0;entryX=0.305;entryY=0.937;entryDx=0;entryDy=0;entryPerimeter=0;" edge="1" parent="1" target="EqFdlPMkGXxcD6CGsmBO-75">
          <mxGeometry width="50" height="50" relative="1" as="geometry">
            <mxPoint x="600" y="30" as="sourcePoint" />
            <mxPoint x="650" y="-20" as="targetPoint" />
          </mxGeometry>
        </mxCell>
        <mxCell id="EqFdlPMkGXxcD6CGsmBO-77" value="Anzahl" style="ellipse;whiteSpace=wrap;html=1;" vertex="1" parent="1">
          <mxGeometry x="560" y="-220" width="100" height="50" as="geometry" />
        </mxCell>
        <mxCell id="EqFdlPMkGXxcD6CGsmBO-78" value="" style="endArrow=none;html=1;rounded=0;exitX=0.438;exitY=-0.034;exitDx=0;exitDy=0;exitPerimeter=0;" edge="1" parent="1" source="EqFdlPMkGXxcD6CGsmBO-2">
          <mxGeometry width="50" height="50" relative="1" as="geometry">
            <mxPoint x="560" y="-120" as="sourcePoint" />
            <mxPoint x="610" y="-170" as="targetPoint" />
          </mxGeometry>
        </mxCell>
      </root>
    </mxGraphModel>
  </diagram>
</mxfile>
